HIERARCHY
ROOT Hips
{
	OFFSET -3.958830 18.904000 13.208200
	CHANNELS 6 Xposition Yposition Zposition Zrotation Yrotation Xrotation 
	JOINT LHipJoint
	{
		OFFSET 0.000000 0.000000 0.000000
		CHANNELS 3 Zrotation Yrotation Xrotation
		JOINT LeftUpLeg
		{
			OFFSET 1.800000 -1.400000 0.085000
			CHANNELS 3 Zrotation Yrotation Xrotation
			JOINT LeftLeg
			{
				OFFSET 2.215000 -6.000000 0.000000
				CHANNELS 3 Zrotation Yrotation Xrotation
				JOINT LeftFoot
				{
					OFFSET 2.500000 -6.900000 0.000000
					CHANNELS 3 Zrotation Yrotation Xrotation
					JOINT LeftToeBase
					{
						OFFSET 0.200000 -0.500000 1.950000
						CHANNELS 3 Zrotation Yrotation Xrotation
						End Site
						{
							OFFSET 0.000000 0.000000 0.000000
						}
					}
				}
			}
		}
	}
	JOINT RHipJoint
	{
		OFFSET 0.000000 0.000000 0.000000
		CHANNELS 3 Zrotation Yrotation Xrotation
		JOINT RightUpLeg
		{
			OFFSET -1.800000 -1.400000 0.085000
			CHANNELS 3 Zrotation Yrotation Xrotation
			JOINT RightLeg
			{
				OFFSET -2.215000 -6.000000 0.000000
				CHANNELS 3 Zrotation Yrotation Xrotation
				JOINT RightFoot
				{
					OFFSET -2.500000 -6.900000 0.000000
					CHANNELS 3 Zrotation Yrotation Xrotation
					JOINT RightToeBase
					{
						OFFSET -0.200000 -0.500000 1.950000
						CHANNELS 3 Zrotation Yrotation Xrotation
						End Site
						{
							OFFSET 0.000000 0.000000 0.000000
						}
					}
				}
			}
		}
	}
	JOINT LowerBack
	{
		OFFSET 0.000000 0.000000 0.000000
		CHANNELS 3 Zrotation Yrotation Xrotation
		JOINT Spine
		{
			OFFSET -0.087000 1.940000 -0.288900
			CHANNELS 3 Zrotation Yrotation Xrotation
			JOINT Spine1
			{
				OFFSET 0.000000 1.950000 0.060000
				CHANNELS 3 Zrotation Yrotation Xrotation
				JOINT Neck
				{
					OFFSET 0.000000 0.000000 0.000000
					CHANNELS 3 Zrotation Yrotation Xrotation
					JOINT Neck1
					{
						OFFSET 0.000000 1.600000 0.340000
						CHANNELS 3 Zrotation Yrotation Xrotation
						JOINT Head
						{
							OFFSET 0.000000 1.667000 -0.240000
							CHANNELS 3 Zrotation Yrotation Xrotation
							End Site
							{
								OFFSET 0.000000 0.000000 0.000000
							}
						}
					}
				}
				JOINT LeftShoulder
				{
					OFFSET 0.000000 0.000000 0.000000
					CHANNELS 3 Zrotation Yrotation Xrotation
					JOINT LeftArm
					{
						OFFSET 2.700000 1.550000 -0.730000
						CHANNELS 3 Zrotation Yrotation Xrotation
						JOINT LeftForeArm
						{
							OFFSET 5.450000 0.000000 0.000000
							CHANNELS 3 Zrotation Yrotation Xrotation
							JOINT LeftHand
							{
								OFFSET 3.450000 0.000000 0.000000
								CHANNELS 3 Zrotation Yrotation Xrotation
								JOINT LeftHandIndex1
								{
									OFFSET 0.750000 0.000000 0.000000
									CHANNELS 3 Zrotation Yrotation Xrotation
									End Site
									{
										OFFSET 0.000000 0.000000 0.000000
									}
								}
							}
						}
					}
				}
				JOINT RightShoulder
				{
					OFFSET 0.000000 0.000000 0.000000
					CHANNELS 3 Zrotation Yrotation Xrotation
					JOINT RightArm
					{
						OFFSET -2.700000 1.550000 -0.730000
						CHANNELS 3 Zrotation Yrotation Xrotation
						JOINT RightForeArm
						{
							OFFSET -5.450000 0.000000 0.000000
							CHANNELS 3 Zrotation Yrotation Xrotation
							JOINT RightHand
							{
								OFFSET -3.450000 0.000000 0.000000
								CHANNELS 3 Zrotation Yrotation Xrotation
								JOINT RightHandIndex1
								{
									OFFSET -0.750000 0.000000 0.000000
									CHANNELS 3 Zrotation Yrotation Xrotation
									End Site
									{
										OFFSET 0.000000 0.000000 0.000000
									}
								}
							}
						}
					}
				}
			}
		}
	}
}
MOTION
Frames: 14
Frame Time: 0.016667
0.635480 17.293910 -1.582900 -1.381577 13.192706 3.605831 -15.253399 11.844762 2.793851 -3.052669 0.499675 -3.255769 -7.471778 3.987888 2.691046 -0.749014 4.269668 3.285274 0.534510 0.403040 0.203360 18.416503 -10.503941 3.548716 -4.660318 4.171150 -30.239814 4.700740 -1.707646 -3.145855 -0.008870 -2.509533 3.271250 0.531060 0.616910 0.758110 -3.860245 1.159785 -7.334428 4.605120 3.445273 4.873958 1.617125 1.523481 9.517399 4.135791 6.174824 -11.023863 11.765449 -9.923997 19.855050 -8.710180 -5.064500 -8.448190 -14.420902 -17.625079 7.707413 -7.048195 -1.458926 1.012459 8.916260 -17.614603 -1.144587 -4.168714 3.058140 0.337310 0.606170 0.064200 0.409490 6.595743 17.361340 3.222944 18.112427 25.986125 -0.110519 -1.888676 46.814207 -0.458655 1.655326 -1.833336 -0.231740 0.133240 -0.094530 0.056900 
0.638010 17.293460 -1.577410 -1.347931 13.349037 3.521044 -15.262597 11.848153 2.789074 -2.929724 0.533181 -3.208833 -7.733364 4.077094 2.867571 -0.741296 4.296267 3.267834 0.541320 0.408150 0.215440 18.405681 -10.510783 3.543484 -4.791902 4.141804 -30.276321 4.662645 -1.718100 -3.048019 -0.010759 -2.507841 3.265371 0.531560 0.601630 0.762990 -3.832163 1.174150 -7.322412 4.397763 3.516621 4.866467 1.740007 1.519136 9.398258 4.297562 6.567385 -11.117234 12.518669 -10.683378 19.582978 -8.932510 -5.452850 -8.461780 -14.921691 -17.868847 7.778934 -6.628194 -1.196409 0.978049 9.180498 -17.975543 -1.175299 -4.161327 3.077042 0.333800 0.602040 0.069160 0.401770 6.743743 17.403748 3.256138 17.566223 25.735837 -0.295720 -1.996911 47.272267 -0.492809 1.653975 -1.844461 -0.221120 0.122920 -0.095780 0.052530 
0.635020 17.290320 -1.566240 -1.235015 13.877502 3.390654 -15.266076 11.824895 2.766067 -2.822250 0.602788 -3.105500 -7.862812 4.158461 3.081023 -0.674729 4.308526 3.277395 0.528660 0.411840 0.182760 18.402182 -10.544922 3.539306 -5.020451 4.077061 -30.352875 4.687442 -1.722302 -2.943241 0.004799 -2.545242 3.265882 0.520530 0.627570 0.778140 -3.827408 1.289670 -7.287272 4.028066 3.647669 4.588597 1.851241 1.498717 9.422020 4.444433 7.180649 -11.383753 13.791992 -12.363288 18.988871 -9.107070 -6.718350 -7.146810 -15.417968 -18.455241 7.910572 -5.845234 -1.206594 0.952682 9.223282 -18.342842 -1.129490 -4.175979 3.125873 0.263400 0.628950 0.049980 0.419530 6.874094 17.693557 3.509522 16.800313 25.316557 -0.537689 -2.936669 47.521771 -0.933197 1.666117 -1.887831 -0.184100 0.105840 -0.102560 0.092760 
0.629090 17.286990 -1.550960 -1.223874 14.664387 3.402729 -15.262381 11.778904 2.732331 -2.594102 0.653498 -3.072928 -8.030057 4.211903 3.160493 -0.640523 4.304863 3.287059 0.547350 0.464900 0.156690 18.410576 -10.589073 3.526490 -5.201942 4.010702 -30.512850 4.508351 -1.692236 -2.805486 0.020381 -2.573067 3.273732 0.555140 0.645020 0.768600 -3.850678 1.459132 -7.225801 3.722672 3.707676 4.022745 2.111926 1.340338 9.482500 4.585024 7.810442 -11.587669 15.251925 -14.549180 17.842116 -9.073010 -8.503600 -6.403190 -15.552904 -18.826394 7.918727 -5.492133 -1.504564 0.980276 8.952948 -18.895126 -1.050089 -4.172077 3.154609 0.199240 0.645940 0.033640 0.451600 6.653867 17.710418 3.709085 16.483421 24.976634 -0.718166 -4.218584 48.190351 -1.610686 1.658617 -1.934713 -0.161290 0.114750 -0.127300 0.133160 
0.622970 17.287800 -1.547650 -1.168238 15.214416 2.908590 -15.281793 11.814534 2.734074 -2.629563 0.775238 -2.679995 -7.590647 4.201174 3.481958 -0.641546 4.239977 3.293365 0.582290 0.530560 0.159050 18.379953 -10.644043 3.507865 -5.260731 3.847580 -30.245049 4.321022 -1.716915 -2.533325 -0.003996 -2.528980 3.299119 0.582600 0.594300 0.722920 -3.791377 1.496211 -7.232291 3.548579 3.883689 4.575121 2.299820 1.454959 9.335672 4.758796 8.492473 -12.013145 16.758137 -17.123085 17.484194 -8.428520 -10.675140 -7.882460 -15.961224 -19.489254 8.017757 -5.101515 -1.596498 0.833346 9.203789 -19.480520 -1.060679 -4.076570 3.120223 0.242590 0.578840 0.081310 0.470810 6.590734 18.126723 4.218155 15.568022 23.692541 -1.741285 -4.959981 49.687978 -2.062098 1.659164 -1.917046 -0.159300 0.150320 -0.160780 0.146670 
0.615650 17.278680 -1.536490 -0.929424 15.650432 2.644428 -15.297966 11.815541 2.741094 -2.642620 0.884662 -2.292060 -7.561854 4.221844 3.489190 -0.593604 4.183159 3.291420 0.619860 0.579180 0.171990 18.359893 -10.675522 3.491126 -5.404927 3.681709 -30.046044 4.129958 -1.693060 -2.514153 -0.020157 -2.504155 3.300624 0.587850 0.523820 0.690630 -3.744069 1.546639 -7.235715 3.006968 4.063246 4.771463 2.524157 1.529424 9.265438 4.707551 9.076363 -12.587130 18.189581 -19.956129 17.004477 -7.564530 -13.171960 -8.471430 -15.700581 -20.154329 8.261410 -5.075110 -1.665482 0.703035 8.924779 -19.672095 -0.968829 -3.972840 3.147256 0.254400 0.503490 0.113760 0.478950 6.245325 18.558406 4.821625 15.054931 22.374733 -2.601422 -5.453838 51.285900 -2.476917 1.689334 -1.948564 -0.126460 0.127060 -0.203650 0.164490 
0.613160 17.273180 -1.531190 -0.815622 16.189225 2.420367 -15.302853 11.826781 2.739209 -2.566884 0.958613 -2.090759 -7.516837 4.275835 3.701454 -0.568738 4.156750 3.304012 0.605020 0.562290 0.153960 18.343363 -10.703101 3.503984 -5.779430 3.549468 -29.869483 4.353608 -1.705276 -2.623311 -0.016757 -2.516986 3.312589 0.567020 0.497150 0.650870 -3.724620 1.586244 -7.274674 2.933406 4.133418 5.027043 2.455306 1.615898 9.160427 4.487650 9.391817 -13.270576 19.153004 -22.687649 16.447308 -7.245070 -15.585890 -8.371120 -15.622129 -21.090452 8.617196 -4.997735 -1.534553 0.551509 8.714551 -19.973513 -0.895639 -3.900274 3.131402 0.271410 0.459950 0.117410 0.483270 6.320248 19.389440 5.597450 14.346234 20.609798 -3.756609 -6.093516 52.939929 -2.982157 1.702174 -1.960696 -0.132940 0.128560 -0.219890 0.175950 
0.607360 17.270650 -1.524690 -0.934337 16.327530 1.880355 -15.301052 11.832413 2.746450 -2.182047 1.034885 -1.562137 -7.493457 4.300802 3.622078 -0.523655 4.138884 3.296516 0.616210 0.567730 0.169750 18.331757 -10.759400 3.507584 -5.679062 3.468264 -29.359040 4.456040 -1.724244 -2.656989 -0.034091 -2.510316 3.313392 0.546220 0.435200 0.634030 -3.720354 1.677283 -7.329559 3.130993 4.221888 5.388987 2.265402 1.746663 9.225194 4.384655 9.643804 -13.997022 19.958391 -24.782607 16.490573 -7.034520 -17.427440 -8.664730 -15.387938 -22.043043 9.043335 -5.073625 -1.549761 0.437001 8.656451 -19.619664 -0.841205 -3.824173 3.137112 0.295620 0.400610 0.150470 0.480240 6.075676 20.370522 6.243140 14.194914 20.010500 -4.435002 -7.461321 52.900100 -3.658131 1.729062 -1.963889 -0.110890 0.100490 -0.248460 0.180340 
0.602180 17.270050 -1.507290 -0.918191 16.130952 1.746134 -15.300770 11.807059 2.745660 -2.126568 1.100010 -1.236464 -7.452213 4.295005 3.522199 -0.525151 4.152070 3.285309 0.626580 0.571340 0.188130 18.334770 -10.805972 3.487230 -5.316493 3.482677 -29.275155 4.273358 -1.746721 -2.317383 -0.030122 -2.494013 3.309200 0.548860 0.410860 0.635860 -3.721391 1.796942 -7.302988 2.798602 4.459667 5.042602 2.445074 1.875545 9.398921 4.367197 9.779087 -14.424950 20.655733 -26.538155 15.806131 -7.869790 -18.630300 -8.378490 -15.325895 -22.558140 9.257824 -5.347563 -1.402371 0.347375 9.257051 -19.986632 -0.938779 -3.809954 3.146017 0.294580 0.390630 0.153410 0.469510 5.933873 21.001905 6.583614 14.159875 19.946989 -4.559444 -7.926709 52.364966 -3.859629 1.722548 -1.983870 -0.102180 0.087540 -0.251900 0.174040 
0.599020 17.272810 -1.501960 -1.088681 16.052480 1.341238 -15.294369 11.807106 2.737684 -2.087138 1.143504 -0.893514 -6.886306 4.232174 3.607930 -0.521166 4.142550 3.305392 0.588240 0.531040 0.157220 18.334376 -10.862032 3.486653 -5.095458 3.445901 -28.801636 4.570765 -1.794431 -2.181173 -0.013644 -2.514942 3.318405 0.528920 0.431380 0.610710 -3.737018 1.893504 -7.314651 2.906029 4.504285 5.123686 2.354782 1.937305 9.651467 4.303786 9.780824 -14.817019 20.916639 -27.514627 15.758203 -7.827030 -19.752970 -7.897810 -15.253445 -23.098362 9.483050 -5.386088 -1.232802 0.277450 9.305098 -20.184978 -0.943781 -3.808437 3.117519 0.286710 0.391000 0.129820 0.461990 5.914183 21.734920 6.871187 13.829190 20.188435 -4.631841 -8.295014 51.139796 -3.904480 1.730950 -1.968408 -0.119880 0.110960 -0.232180 0.181050 
0.601710 17.275370 -1.494430 -1.052783 16.392533 1.138601 -15.289862 11.768434 2.713533 -2.042892 1.197318 -0.637036 -6.772517 4.253042 3.728587 -0.559742 4.200127 3.316166 0.584870 0.533470 0.134450 18.345907 -10.911989 3.454973 -5.097326 3.317340 -28.378754 4.565462 -1.810166 -2.105556 0.009767 -2.577906 3.318283 0.565480 0.495100 0.579300 -3.766660 2.036226 -7.254549 2.419789 4.330456 4.717986 2.507692 1.585604 10.539541 4.500837 9.757784 -15.054599 21.232272 -27.426976 15.334683 -7.527180 -20.074060 -7.467010 -14.809224 -23.231119 9.502908 -5.776523 -1.134312 0.222940 10.206229 -20.820771 -1.125693 -3.834237 3.081184 0.267750 0.424880 0.078700 0.478170 5.191898 22.120264 6.973365 14.645314 21.713792 -4.157880 -10.770692 48.357605 -4.848474 1.704951 -1.947340 -0.165800 0.170340 -0.221630 0.187580 
0.601000 17.277780 -1.486710 -1.211847 16.505508 0.627967 -15.276977 11.711489 2.673111 -1.681471 1.275516 -0.210346 -6.988713 4.378484 4.070901 -0.580901 4.283646 3.294520 0.630230 0.605030 0.120580 18.367649 -10.984994 3.420774 -4.926647 3.183882 -27.664230 4.618156 -1.813643 -2.104867 0.010162 -2.660629 3.297006 0.637750 0.539630 0.563900 -3.822218 2.257797 -7.182335 2.082346 4.085200 4.350315 2.735926 1.103800 11.835058 4.970873 9.629494 -15.183456 21.268067 -26.534325 15.410294 -6.744470 -19.965230 -7.733800 -13.938423 -22.937749 9.271721 -6.463599 -1.442245 0.206300 11.225171 -21.262259 -1.332038 -3.853697 3.085088 0.234920 0.447450 0.046850 0.510640 3.711587 22.281629 6.982921 16.164223 24.261384 -3.085304 -13.897209 44.436711 -5.942827 1.689254 -1.949475 -0.177800 0.213860 -0.228190 0.207500 
0.598320 17.283330 -1.478400 -1.692267 16.156100 -0.025240 -15.268520 11.670986 2.655860 -1.256432 1.316530 0.416268 -6.716077 4.325937 3.841306 -0.590434 4.320421 3.286611 0.657650 0.654070 0.108080 18.380409 -11.032921 3.420415 -4.446235 3.158174 -26.758581 4.878166 -1.802855 -2.443059 0.001881 -2.736903 3.281554 0.683760 0.564640 0.554530 -3.853619 2.418748 -7.181667 2.435773 3.974022 4.419237 2.929589 0.878513 12.733806 5.338318 9.344806 -15.358816 20.849016 -25.760112 15.639881 -6.376930 -19.751100 -7.986390 -13.747751 -22.856114 9.092473 -6.591419 -1.265772 0.093529 11.543462 -22.328434 -1.443872 -3.850779 3.098113 0.216570 0.460710 0.032030 0.533030 3.031506 22.775953 7.117753 15.734137 24.917326 -2.996707 -14.218579 43.188693 -6.039299 1.675146 -1.982030 -0.184610 0.239740 -0.234580 0.221760 
0.588470 17.285830 -1.468720 -1.604229 16.004136 -0.013391 -15.278637 11.748154 2.682611 -1.194424 1.316186 0.323187 -6.813280 4.379436 3.915509 -0.513310 4.283432 3.289164 0.597420 0.574890 0.094920 18.354310 -11.000356 3.439417 -4.386685 3.157601 -26.606031 5.014674 -1.840307 -2.552538 -0.008601 -2.693800 3.299655 0.589930 0.516200 0.567200 -3.799483 2.221564 -7.260013 2.622285 4.079711 4.897330 2.496607 1.244567 11.738477 4.833985 9.513677 -15.502938 20.939287 -26.665986 16.077152 -6.476280 -20.295280 -7.712790 -14.164262 -23.492712 9.658795 -5.963172 -0.679226 0.122920 10.389893 -21.261861 -1.156749 -3.817450 3.108208 0.237070 0.423430 0.068150 0.505170 4.096167 23.013167 7.121551 14.463054 23.365547 -3.720529 -11.279232 45.928737 -4.909105 1.717076 -1.966400 -0.152770 0.185140 -0.226190 0.221060 
